# xmcd
#
# Track frame offsets:
#	150
#	18682
#	35875
#	54227
#	73465
#	90749
#	108038
#	127171
#	147301
#	161846
#	175053
#
# Disc length: 2552 seconds
#
# Revision: 1
# Processed by: cddbd v1.5.1PL0 Copyright (c) Steve Scherf et al.
# Submitted via: EasyCDDAExtractor 7.0.5.4
#
DISCID=a209f60b
DTITLE=Elton Saldanha - Linda Terra, Santa Catarina CD-1
DYEAR=2005
DGENRE=Gaúcha
TTITLE0=Linda Terra, Santa Catarina
TTITLE1=Herdeiro do Contestado
TTITLE2=Carona na 101
TTITLE3=Sou Mané, e Daí
TTITLE4=To Chegando em Lages
TTITLE5=De Chapecó e Uruguaiana
TTITLE6=Leão do Cajuru
TTITLE7=Canta Catarina
TTITLE8=Chica Pelega
TTITLE9=Tropeando Peru
TTITLE10=Hino do Estado de Santa Catarina
EXTD=
EXTT0=
EXTT1=
EXTT2=
EXTT3=
EXTT4=
EXTT5=
EXTT6=
EXTT7=
EXTT8=
EXTT9=
EXTT10=
PLAYORDER=
